<?xml version="1.0" encoding="UTF-8" standalone="no"?>
<!-- Created with Inkscape (http://www.inkscape.org/) -->

<svg
   width="128"
   height="128"
   viewBox="0 0 266.92915 266.92915"
   version="1.1"
   id="svg1"
   xml:space="preserve"
   inkscape:version="1.4.2 (ebf0e940d0, 2025-05-08)"
   sodipodi:docname="ru.ximper.Herbarium.svg"
   inkscape:export-filename="herbs.png"
   inkscape:export-xdpi="96"
   inkscape:export-ydpi="96"
   xmlns:inkscape="http://www.inkscape.org/namespaces/inkscape"
   xmlns:sodipodi="http://sodipodi.sourceforge.net/DTD/sodipodi-0.dtd"
   xmlns="http://www.w3.org/2000/svg"
   xmlns:svg="http://www.w3.org/2000/svg"><sodipodi:namedview
     id="namedview1"
     pagecolor="#505050"
     bordercolor="#ffffff"
     borderopacity="1"
     inkscape:showpageshadow="0"
     inkscape:pageopacity="0"
     inkscape:pagecheckerboard="1"
     inkscape:deskcolor="#505050"
     inkscape:document-units="mm"
     showguides="true"
     inkscape:zoom="8.0000002"
     inkscape:cx="98.374998"
     inkscape:cy="61.437499"
     inkscape:window-width="2560"
     inkscape:window-height="1378"
     inkscape:window-x="0"
     inkscape:window-y="0"
     inkscape:window-maximized="1"
     inkscape:current-layer="layer1" /><defs
     id="defs1"><inkscape:path-effect
       effect="fillet_chamfer"
       id="path-effect46"
       is_visible="true"
       lpeversion="1"
       nodesatellites_param="F,0,0,1,0,0,0,1 @ F,0,0,1,0,0,0,1 @ F,0,0,1,0,0,0,1 @ F,0,0,1,0,0,0,1 @ F,0,0,1,0,0,0,1"
       radius="0"
       unit="px"
       method="auto"
       mode="F"
       chamfer_steps="1"
       flexible="false"
       use_knot_distance="true"
       apply_no_radius="true"
       apply_with_radius="true"
       only_selected="false"
       hide_knots="false" /><inkscape:path-effect
       effect="fillet_chamfer"
       id="path-effect45"
       is_visible="true"
       lpeversion="1"
       nodesatellites_param="F,0,0,1,0,0,0,1 @ F,0,0,1,0,0,0,1 @ F,0,0,1,0,0,0,1 @ F,0,0,1,0,0,0,1 @ F,0,0,1,0,0,0,1"
       radius="0"
       unit="px"
       method="auto"
       mode="F"
       chamfer_steps="1"
       flexible="false"
       use_knot_distance="true"
       apply_no_radius="true"
       apply_with_radius="true"
       only_selected="false"
       hide_knots="false" /><inkscape:path-effect
       effect="fillet_chamfer"
       id="path-effect44"
       is_visible="true"
       lpeversion="1"
       nodesatellites_param="F,0,0,1,0,0,0,1 @ F,0,0,1,0,0,0,1 @ F,0,0,1,0,0,0,1 @ F,0,0,1,0,0,0,1 @ F,0,0,1,0,0,0,1"
       radius="0"
       unit="px"
       method="auto"
       mode="F"
       chamfer_steps="1"
       flexible="false"
       use_knot_distance="true"
       apply_no_radius="true"
       apply_with_radius="true"
       only_selected="false"
       hide_knots="false" /><inkscape:path-effect
       effect="fillet_chamfer"
       id="path-effect36"
       is_visible="true"
       lpeversion="1"
       nodesatellites_param="F,0,0,1,0,0,0,1 @ F,0,0,1,0,0,0,1 @ F,0,0,1,0,0,0,1 @ F,0,0,1,0,0,0,1 @ F,0,0,1,0,0,0,1 @ F,0,0,1,0,0,0,1 @ F,0,0,1,0,0,0,1 @ F,0,0,1,0,0,0,1 @ F,0,0,1,0,0,0,1"
       radius="0"
       unit="px"
       method="auto"
       mode="F"
       chamfer_steps="1"
       flexible="false"
       use_knot_distance="true"
       apply_no_radius="true"
       apply_with_radius="true"
       only_selected="false"
       hide_knots="false" /><inkscape:path-effect
       effect="fillet_chamfer"
       id="path-effect34"
       is_visible="true"
       lpeversion="1"
       nodesatellites_param="F,0,0,1,0,0,0,1 @ F,0,0,1,0,0,0,1 @ F,0,0,1,0,0,0,1 @ F,0,0,1,0,0,0,1 @ F,0,0,1,0,0,0,1 @ F,0,0,1,0,0,0,1 @ F,0,0,1,0,0,0,1 @ F,0,0,1,0,0,0,1 @ F,0,0,1,0,0,0,1"
       radius="0"
       unit="px"
       method="auto"
       mode="F"
       chamfer_steps="1"
       flexible="false"
       use_knot_distance="true"
       apply_no_radius="true"
       apply_with_radius="true"
       only_selected="false"
       hide_knots="false" /></defs><g
     inkscape:label="Слой 1"
     inkscape:groupmode="layer"
     id="layer1"><path
       id="rect44"
       style="fill:#f6f5f4;fill-opacity:1;fill-rule:evenodd;stroke:#040505;stroke-width:0"
       d="m 52.869204,62.021403 c 20.145263,1.049218 42.327129,-6.584616 58.917256,2.867657 23.23615,-9.629287 40.05815,-2.003089 58.7375,-2.844271 l -0.13229,64.690621 H 53.181248 Z"
       inkscape:path-effect="#path-effect45"
       inkscape:original-d="m 52.869204,62.021403 c 20.145263,1.049218 42.327129,-6.584616 58.917256,2.867657 23.23615,-9.629287 40.05815,-2.003089 58.7375,-2.844271 l -0.13229,64.690621 H 53.181248 Z"
       sodipodi:nodetypes="cccccc"
       transform="matrix(1.9826987,0,0,2.5351014,-87.885328,-112.88686)" /><path
       d="m 108.58105,58.817113 c -2.3941,1.700677 -5.80869,2.557513 -7.80383,4.666995 -2.349421,2.484076 -2.106229,6.080947 -2.494264,9.208101 -4.808522,-4.207187 -8.185254,-2.703132 -13.990819,-3.677372 0.05365,3.12107 -1.011913,6.452086 -0.67184,9.515406 0.56911,5.127541 5.653649,7.824054 10.231043,8.690151 l -0.05424,0.322892 c -2.219759,0.616871 -6.512374,4.493441 -5.512778,7.261639 0.720309,1.994746 4.024106,2.568108 5.82862,2.720497 3.152129,0.26621 5.094689,-1.825068 7.534978,-3.35171 -0.10658,0.63449 -1.10426,7.576398 0.99601,5.877528 0.97971,-0.792468 0.78121,-4.600036 0.99533,-5.87514 2.63782,3.217678 4.24115,6.19866 8.88371,6.41091 6.16505,0.28185 4.65297,-7.196672 0.9709,-9.736234 l 0.0542,-0.322892 c 4.60925,0.676486 10.29567,-0.211167 12.50836,-4.871747 1.31877,-2.777611 1.40274,-6.280236 2.47304,-9.212967 l -9.21941,-2.434558 -5.58232,1.609099 c 3.70482,-7.245876 -0.0441,-11.75643 -5.14701,-16.800649 z"
       style="fill:#2ec27e;fill-opacity:1;stroke-width:1.2375"
       id="path838" /><path
       id="rect43"
       style="fill:#c0bfbc;fill-opacity:1;fill-rule:evenodd;stroke:#040505;stroke-width:0"
       d="m 52.916664,124.08958 c 28.966002,5.6997 41.833496,-1.83026 59.250066,2.22513 20.48906,-4.54813 33.55889,3.48911 59.54785,-2.22513 v 7.67291 H 52.916664 Z"
       inkscape:path-effect="#path-effect44"
       inkscape:original-d="m 52.916664,124.08958 c 28.966002,5.6997 41.833496,-1.83026 59.250066,2.22513 20.48906,-4.54813 33.55889,3.48911 59.54785,-2.22513 v 7.67291 H 52.916664 Z"
       sodipodi:nodetypes="cccccc"
       transform="matrix(1.9826987,0,0,2.5351014,-87.885328,-112.88686)" /><path
       id="rect34"
       style="fill:#e01b24;fill-opacity:1;fill-rule:evenodd;stroke:#040505;stroke-width:0"
       d="m 11.950527,51.547304 h 4.994337 l 0.04408,163.806716 H 124.50765 c 7.16315,-11.06787 13.28015,-10.31963 19.80322,0 h 105.84066 l 0.055,-163.817209 4.39913,0.01016 c 2.7313,0.0935 2.76511,0.157432 2.69139,4.216436 l 0.15159,159.735193 c -0.1095,8.66376 -0.11153,8.81688 -9.07629,8.78608 l -104.09406,0.16757 c -9.02616,4.4832 -10.24677,4.46233 -19.72526,-0.16783 l -106.391427,0.0593 c -8.7004673,0.13536 -8.7247178,0.10594 -8.6746377,-8.94037 l 0.0033,-159.682085 c 0.058308,-4.167477 0.078214,-4.247609 2.4602037,-4.174527 z"
       sodipodi:nodetypes="cccccccccccccccccc" /><path
       d="m 61.11242,54.661272 -2.986614,3.303539 -1.265811,1.938572 -0.134538,-0.640906 -0.640877,0.134617 -0.929438,3.540747 -2.258999,-1.198516 -0.727612,4.502056 -4.601212,-4.38699 c -1.01443,2.740949 -1.156041,5.646965 -0.56119,8.481867 -1.534187,0.550421 -0.04507,2.560753 0.419587,3.592082 l -0.320437,0.06745 C 45.849134,71.672703 42.74994,70.08304 40.379617,69.051152 l 0.656816,1.534925 -0.320441,0.06745 -3.454009,-5.296938 -0.458514,5.783804 -0.320436,0.06746 -0.454988,-0.573617 c -0.06528,2.436032 0.683062,4.261049 1.986371,6.274215 l -3.473474,-0.609008 c 0.583294,1.922502 1.645681,3.15768 3.252185,4.335642 -0.570423,1.210458 1.536129,2.412925 2.342211,3.188448 -2.330895,-0.187856 -5.620673,1.27297 -7.033688,3.149499 l 2.765327,0.423109 c 0.63719,1.595062 2.22261,1.905924 3.80985,2.211196 l 0.06725,0.320441 -1.534913,0.656785 6.491961,0.644398 -1.198537,2.259012 3.845249,-0.807281 c 1.571332,1.163328 3.450005,-1.280199 4.537464,-2.290871 0.646449,3.07911 1.487422,6.182636 1.922182,9.298725 0.13393,0.959544 -0.116896,2.954554 0.995223,3.442464 1.290507,0.56623 1.347095,-1.5405 1.262526,-2.24366 -0.298754,-2.484173 -1.275643,-5.254962 -2.225431,-7.562259 l 0.320434,-0.06745 2.005839,1.586246 -0.134538,-0.640855 3.995736,1.503039 -0.724086,-1.855365 c 1.664854,0.656696 5.204907,2.057513 6.357407,0.0051 l 6.155591,-0.957764 -4.063011,-1.823468 0.439049,-1.095872 -2.124448,-0.557649 -0.06728,-0.320466 4.620672,-0.300966 4.402913,-2.93174 -3.35486,-1.637605 -0.134563,-0.640868 c 1.744703,-0.851183 3.064818,-2.055124 3.880652,-3.825771 l -0.894037,0.522257 2.852064,-3.94442 -0.06728,-0.320402 c -6.711128,-0.541147 -11.551854,0.981506 -17.1018,4.594129 l -0.06725,-0.320415 8.164951,-5.728938 -0.06728,-0.320466 -1.281749,0.269119 2.464351,-4.197571 -1.214473,0.589547 0.86216,-3.861188 -4.806562,1.009123 1.099393,-5.91837 -2.816663,0.925917 c 0.171018,-1.097373 0.950151,-2.870828 -0.605476,-2.883938 l 0.371775,-1.416301 -0.96131,0.201791 z"
       style="fill:#26a269;fill-opacity:1;stroke-width:1.2375"
       id="path835" /><path
       id="rect45"
       style="fill:#cdab8f;fill-rule:evenodd;stroke:#040505;stroke-width:0"
       d="m 111.69819,64.839628 0.0888,0.04574 0.11501,-0.04385 0.40926,61.480492 h -0.29766 z"
       inkscape:path-effect="#path-effect46"
       inkscape:original-d="m 111.69819,64.839628 0.0888,0.04574 0.11501,-0.04385 0.40926,61.480492 h -0.29766 z"
       sodipodi:nodetypes="cccccc"
       transform="matrix(1.9826987,0,0,2.5351014,-87.885328,-112.88686)" /><path
       d="m 168.84753,135.88258 c -1.79665,3.78731 -3.36314,8.49781 -8.2316,8.49378 0.49303,1.86846 1.01378,3.81462 -1.31605,4.36647 l 1.79299,6.43293 -1.1743,-2.53908 c -1.93824,0.17669 -2.46336,-1.0921 -3.1578,-2.71953 l -1.20866,1.40348 -0.32653,0.0253 -1.12562,-1.88605 c -2.71627,1.43213 -3.71147,-1.27154 -6.07211,-2.17388 0.23247,2.43785 2.49629,6.33799 -0.0687,7.88508 0.51462,1.25794 1.59473,2.30633 0.24362,3.26518 l 2.48037,2.44171 -1.58388,0.77478 c 2.38175,3.92608 0.98299,4.7179 -3.17776,5.81861 l 4.46384,2.62214 -0.9065,1.05259 1.65694,0.20484 -0.58,1.02826 1.98343,0.18025 -0.53128,1.68127 c 2.26704,-0.16883 4.39828,1.18864 6.34338,1.01346 2.52149,-0.22713 6.5179,-3.2216 8.92967,-0.99869 1.53949,1.41891 -0.4926,7.49667 1.49355,7.9379 1.97198,0.43807 0.56671,-7.02121 1.71822,-8.03761 2.43937,-2.15309 7.63672,0.78068 10.18998,1.55835 1.20841,-2.47642 3.31484,-1.49196 5.50208,-1.06693 l -1.15,-2.21258 1.63261,-0.12169 -0.42392,-1.28173 1.65691,0.20484 -0.44823,-1.60825 4.82471,-1.34476 -0.0254,-0.3265 c -3.74526,-1.82718 -6.97064,-2.30466 -3.42563,-6.31121 l -1.68128,-0.5313 2.09086,-2.78257 -1.3548,-0.55564 -0.0253,-0.32651 1.8617,-1.45217 -0.0487,-0.65301 c -2.95251,-1.92158 -0.7668,-4.79869 -0.23349,-7.53425 l -7.94378,3.54735 -0.39957,-0.95521 -3.09475,2.5291 -0.8091,2.35866 -0.32652,0.0254 1.82302,-6.37426 c -2.23667,-0.62323 -1.83306,-2.49685 -1.97345,-4.44948 -4.34703,0.81187 -5.80088,-6.12658 -7.86511,-8.60683 z"
       style="fill:#2ec27e;fill-opacity:1;stroke-width:1.2375"
       id="path832" /><path
       d="m 226.21688,138.0481 c -0.48228,-0.0611 -1.07891,0.30105 -1.68728,1.2925 -3.41524,-1.14411 -2.7204,2.84289 -3.094,5.02688 -0.71842,-1.25759 -1.09835,-3.90023 -2.37638,-4.6452 -1.47758,-0.86132 -4.1799,4.39719 -4.10568,5.59239 0.18811,3.02825 3.38425,4.9683 3.51984,8.12751 -1.24799,-1.42467 -1.35333,-3.25543 -2.4381,-4.73503 -0.69774,-0.95168 -1.9051,-1.35676 -2.7824,-2.11989 -0.73405,-0.63846 -1.52395,-1.69872 -2.62285,-1.58562 -2.25839,0.23247 -0.98196,3.31652 -0.88166,4.5489 0.0845,1.03986 -0.82742,1.82548 -0.65428,2.84206 0.4226,2.48024 4.56415,5.05532 6.07824,7.03665 -1.09189,-0.33702 -2.02684,-0.87684 -3.05568,-1.36236 -2.2205,-1.04781 -3.75114,0.0127 -2.68549,2.4687 1.21911,2.80941 4.20936,3.84525 5.43359,6.53124 -0.91421,-0.18582 -2.66845,-0.66229 -2.83381,0.74821 -0.26135,2.22921 2.65425,4.83398 3.22015,7.03903 0.79301,3.09022 -1.04075,5.96863 -0.31741,8.97528 l 0.64012,0.13816 c 1.55216,-2.21261 1.11741,-4.54903 1.95574,-6.94713 0.68489,-1.95923 2.45882,-2.92993 3.50663,-4.60159 0.62566,-0.9982 0.30893,-1.6881 -0.43543,-2.43989 0.93673,-0.5185 8.67393,-4.59994 4.21661,-5.60313 -1.05633,-0.23805 -2.27906,0.13867 -3.36307,0.093 2.51989,-1.34989 5.28647,-1.20918 7.84863,-2.31478 1.33351,-0.5754 2.06529,-1.7061 0.96257,-2.81873 0.79842,-0.73655 7.53276,-5.52536 4.0929,-6.64316 -1.85204,-0.60188 -3.22137,1.38526 -5.09069,0.3988 1.37986,-0.48532 5.54478,-7.21751 2.67943,-7.79394 -2.18523,-0.43956 -5.22778,2.83485 -7.43015,3.4197 0.5741,-1.59934 7.21913,-7.4209 2.68607,-7.79448 0.30413,-1.49568 -0.18228,-2.77233 -0.98616,-2.87402 z"
       style="fill:#57e389;fill-opacity:1;stroke-width:1.2375"
       id="path831" /><path
       style="fill:#57e389;stroke:none;stroke-width:0.256643;fill-opacity:1"
       d="m 164.66919,111.00048 c -2.61412,0.90957 -4.9165,2.60406 -6.99584,4.00259 -0.70793,0.47612 -1.54641,1.63312 -2.62408,1.58678 1.90701,-2.26096 5.35335,-4.05913 8.12426,-5.76206 0.97972,-0.6021 2.39056,-1.21196 3.08367,-1.99184 -2.43387,-1.33394 -5.76155,0.53714 -8.40755,0.23197 l 0.008,-0.0563 c 1.60667,-0.13309 3.07898,-0.75605 4.6724,-0.96691 0.79342,-0.10493 1.57654,-0.15084 2.38782,-0.0502 0.63806,0.0799 1.28845,0.3011 1.93698,0.19547 0.85271,-0.13868 1.18618,-0.80194 1.74885,-1.20205 1.51188,-1.07517 3.15968,-1.73559 3.98366,-3.20505 -1.08551,-0.36159 -2.66176,-0.16479 -3.76871,-0.0344 -2.98344,0.35124 -5.59257,1.39651 -8.68918,0.94397 l 0.0203,-0.1123 c 1.05195,0.0471 2.26509,-0.2312 3.26747,-0.40834 1.91996,-0.33921 3.83388,-0.72626 5.81132,-0.90732 1.41392,-0.12954 3.45019,0.21928 4.71369,-0.22993 0.55047,-0.19571 0.80728,-0.58919 1.19248,-0.90458 0.49737,-0.40721 1.08326,-0.77018 1.65267,-1.12624 1.21675,-0.76097 2.50621,-1.509828 3.54306,-2.396961 0.20585,-0.176195 0.93238,-0.765983 0.53433,-1.019566 -0.21042,-0.134108 -0.83325,-0.04459 -1.09251,-0.04078 -1.04068,0.01524 -2.07691,0.03087 -3.1201,0.0127 -2.81988,-0.04815 -5.79686,-0.06695 -8.51734,0.39976 -2.15859,0.370237 -4.01093,1.35314 -6.33297,1.08505 3.48514,-1.522526 8.00639,-2.067598 12.14702,-2.008935 1.1647,0.01524 2.42803,0.300052 3.56809,0.25559 0.5472,-0.02032 1.02378,-0.225623 1.59735,-0.232216 0.97164,-0.01016 1.96906,0.123476 2.88983,-0.109248 1.19723,-0.302973 2.04134,-1.242737 2.85491,-1.885815 1.56316,-1.235534 3.36299,-2.349662 4.86387,-3.618809 -4.39088,-0.507393 -8.84394,-1.185406 -13.25907,-0.699404 -1.78145,0.195961 -3.44405,0.758423 -5.11756,1.178254 -1.48517,0.372613 -4.43892,0.766465 -5.59825,-0.383677 1.45399,0.484325 3.3527,0.136128 4.7774,-0.111535 2.83787,-0.493204 6.00803,-1.396001 8.99952,-1.332929 -0.44138,-0.626348 -2.24328,-0.646203 -3.07513,-0.75676 -0.92805,-0.122205 -1.88681,-0.258448 -2.79828,-0.445644 -0.43079,-0.08841 -0.89755,-0.315816 -1.33975,-0.333994 -0.52287,-0.02032 -1.06728,0.152109 -1.5891,0.182521 -0.88508,0.05145 -1.723,-0.03316 -2.60343,-0.134858 l 0.008,-0.05628 c 3.10497,-0.334122 5.95955,-0.195961 9.02772,0.485227 1.47799,0.328113 2.91764,0.92297 4.3973,1.197196 0.86493,0.160468 1.94395,-0.02287 2.85813,0.08321 2.11462,0.244132 4.45828,0.697358 6.52464,0.239559 1.19264,-0.264254 2.1446,-0.918714 3.05644,-1.481279 1.45468,-0.8975 3.08415,-1.810955 4.38094,-2.815581 -5.1601,-0.595835 -10.14981,-2.048366 -15.35825,-2.398062 -3.24131,-0.217506 -6.66274,0.874456 -9.74768,-0.09959 l 0.008,-0.05627 c 1.24215,0.02642 2.49031,-0.175687 3.72843,-0.218776 3.27085,-0.113822 6.68861,-0.107216 9.93978,0.427694 2.98805,0.491629 5.83362,1.183768 8.85481,1.5326 0.92947,0.108486 2.60454,0.439686 3.4872,0.229421 0.86851,-0.207114 1.79372,-1.000269 2.4551,-1.432968 1.7305,-1.132066 3.51101,-2.256332 5.0157,-3.544013 -1.76055,-0.566572 -3.70315,-0.847022 -5.54195,-1.22873 -1.16628,-0.242112 -2.30482,-0.614077 -3.47281,-0.832993 -0.89199,-0.16706 -1.83866,-0.164774 -2.74535,-0.269296 -2.25732,-0.260735 -4.56827,-0.536282 -6.83237,-0.363683 -2.81881,0.21447 -5.14948,1.347603 -7.90387,1.654476 -1.00509,0.112043 -1.92872,-0.0076 -2.93336,-0.123984 l 0.008,-0.05628 c 1.60581,-0.08841 2.99122,-0.359579 4.53464,-0.629028 0.57815,-0.100864 1.1935,-0.07228 1.75758,-0.209147 0.91195,-0.221571 1.64203,-0.693155 2.53518,-0.943206 0.94541,-0.264698 2.0569,-0.276894 3.07954,-0.264139 4.16804,0.0517 8.33227,0.844056 12.36249,1.65727 1.32267,0.266743 2.65335,0.495313 3.98062,0.739293 0.46684,0.08575 1.29892,0.331936 1.76157,0.244385 0.70645,-0.133854 1.46189,-0.775497 2.02676,-1.092736 1.53546,-0.862311 3.1999,-1.624699 4.50525,-2.670319 -1.34008,-0.408918 -2.77631,-0.462844 -4.13124,-0.820848 -1.25478,-0.331492 -2.37124,-0.886854 -3.66645,-1.151158 -0.95337,-0.194704 -1.95979,-0.12119 -2.90259,-0.310735 -1.66299,-0.334071 -3.23188,-0.774596 -4.96702,-0.728508 -2.87447,0.07609 -5.46116,1.060762 -8.26612,1.363557 -1.19237,0.128786 -2.31453,-0.0076 -3.50418,-0.14577 l 0.008,-0.05627 c 2.52455,0.254726 4.92367,-0.392824 7.21492,-0.959873 1.14911,-0.284388 2.29851,-0.720492 3.56172,-0.70004 1.53921,0.02541 2.99822,0.33745 4.50274,0.558386 1.99742,0.293128 3.97519,0.494513 5.90218,1.028102 0.79264,0.219296 1.45935,0.652694 2.23677,0.86503 0.86525,0.236268 1.91283,0.217518 2.81409,0.349823 0.6731,0.09807 1.31761,0.336865 2.00838,0.260049 0.88038,-0.09782 1.29625,-0.698122 1.91466,-1.069236 1.26319,-0.758093 2.95923,-1.190653 4.09705,-2.046664 -3.02559,-0.77617 -6.10381,-1.651261 -9.263,-2.042776 -1.17558,-0.143992 -2.27033,-0.01524 -3.42767,-0.111789 -0.91663,-0.07736 -1.80358,-0.414711 -2.7145,-0.456239 -0.99493,-0.04535 -1.86313,0.102135 -2.8694,-0.01524 0.57229,-0.410634 1.18054,-0.320708 1.93939,-0.316604 0.39133,0.0025 0.78234,-0.119665 1.1644,-0.09451 0.83076,0.05399 1.66154,0.265232 2.48403,0.368535 2.41913,0.303139 4.84062,0.511409 7.2252,0.959047 2.32267,0.435888 4.80535,1.802583 7.0896,0.791618 0.48217,-0.213453 0.88378,-0.511434 1.25472,-0.811435 0.40673,-0.328964 0.82325,-0.684554 1.10814,-1.074634 -1.84413,-0.860114 -3.46751,-1.730378 -5.63823,-2.130163 -2.948,-0.5429 -5.89184,-0.152617 -8.79536,0.09578 -4.00237,0.342519 -7.82521,0.471101 -11.6382,1.411678 -1.84756,0.45573 -3.61222,1.027543 -5.42372,1.541797 -1.81412,0.515004 -3.71474,1.018117 -5.30296,1.823747 -2.05006,1.039928 -3.49161,2.551632 -5.45563,3.659879 -1.73184,0.977225 -3.85407,1.564155 -5.4925,2.629986 -2.01768,1.312554 -3.7654,2.914603 -5.38026,4.475442 -2.51258,2.428626 -4.78191,4.97143 -6.57904,7.715706 -2.45388,3.747087 -3.45393,7.781166 -5.1706,11.715125 -1.311,3.00425 -2.15556,6.11637 -3.55441,9.09569 -0.76958,1.63898 -2.19959,3.53163 -1.74914,5.35282 2.14579,-0.35854 4.06716,-1.18828 6.04428,-1.82165 0.55154,-0.17669 1.85679,-0.31576 2.22897,-0.63035 0.25858,-0.21852 0.23856,-0.7365 0.40088,-1.01322 0.56542,-0.96309 1.30289,-1.80188 1.47824,-2.86439 m 19.76647,0.0489 c -0.58421,-1.13805 0.91996,-2.3098 1.38658,-3.33313 1.04195,-2.285 1.92982,-4.73511 1.67953,-7.19335 -0.068,-0.669227 -0.24793,-1.365037 -0.24085,-2.032073 0.005,-0.402453 0.14248,-0.82128 -0.50047,-1.031278 -1.6072,1.75755 -5.11375,2.340834 -6.4673,4.235361 -0.75873,1.06198 -0.27186,2.34482 -0.52867,3.49167 -0.23956,1.06981 -1.15983,1.96389 -1.34659,3.04915 -0.22233,1.293 -0.0705,2.80437 -1.9624,3.43843 0.0102,-0.69115 0.93385,-1.10219 1.16843,-1.75485 0.32533,-0.90506 0.2203,-1.89182 0.5006,-2.80547 0.48612,-1.58471 1.41305,-2.8315 0.89852,-4.53481 -0.71842,0.29736 -1.31295,0.82279 -1.94541,1.20705 -1.66722,1.01296 -3.38635,1.94071 -4.09526,3.47849 -0.87946,1.90774 -0.60222,4.74631 -3.41063,5.84816 0.44053,-0.83882 1.11989,-1.60969 1.56317,-2.45373 0.60617,-1.15415 0.85098,-2.26364 0.97754,-3.49488 -1.13264,0.22359 -2.28211,0.99459 -3.14599,1.52655 -2.91002,1.79189 -4.41253,4.00453 -5.888,6.47838 1.01776,0.0102 2.11542,-0.22588 3.09787,-0.37517 2.30983,-0.35078 4.67434,-0.78553 6.80829,-1.47923 0.93172,-0.30287 1.75171,-0.74826 2.7111,-1.015 0.80812,-0.22486 1.74124,-0.12828 2.58659,-0.26048 2.056,-0.32169 4.0674,-0.74761 6.15315,-0.98979 m -14.95352,2.11027 0.0898,-0.0469 -0.0898,0.0469 m 59.38101,-39.128242 c -0.87369,0.07254 -2.37994,0.528927 -2.61124,1.187414 -0.23831,0.678876 0.61511,1.312681 0.85515,1.931216 0.4958,1.277607 0.541,2.773368 0.59081,4.076852 0.0203,0.563848 0.41269,2.13222 -0.4115,2.357615 0.1724,-1.677151 0.1123,-3.354899 -0.40725,-5.029141 -0.34993,-1.127683 -0.99438,-2.172909 -1.50581,-3.266217 l -4.61353,2.101568 c 0.10086,3.698865 2.20415,7.369745 2.8853,11.041845 0.34931,1.882944 0.57689,3.913613 -0.70664,5.58769 l -0.0804,-0.01016 c 0.55473,-1.052454 0.53329,-2.310092 0.4958,-3.435957 -0.0965,-2.89617 -1.18628,-5.661916 -2.09846,-8.488524 -0.0822,-0.254434 0.0178,-0.495745 -0.0807,-0.753736 -0.21701,-0.570987 -0.65135,-1.116466 -0.80399,-1.696295 -0.1701,-0.646114 -0.0203,-1.203077 -0.58928,-1.78598 l -0.0807,-0.01016 c -1.17226,0.612273 -3.3674,1.170683 -4.06167,2.107982 -0.4317,0.582802 -0.27538,1.60445 -0.28279,2.257971 -0.0203,1.806432 0.29402,3.585844 0.5469,5.388859 0.40761,2.906574 1.18408,5.887017 0.65629,8.780152 -0.24768,1.356634 -1.15084,2.5278 -1.5346,3.831398 l -0.0804,-0.0102 c 0.22411,-1.357932 0.759,-2.656386 1.06715,-3.999885 0.38231,-1.66648 0.40227,-3.484701 0.21877,-5.185937 -0.37993,-3.520548 -2.21014,-7.089383 -1.62908,-10.61044 -0.56254,0.206619 -0.97882,0.576538 -1.45922,0.862298 -1.18085,0.70239 -2.34509,1.418767 -3.53817,2.111172 -0.53706,0.311675 -1.66883,0.79755 -1.91253,1.268092 -0.19749,0.38148 0.22462,1.154589 0.26671,1.57696 0.11052,1.112071 -0.0304,2.207208 -0.12068,3.308303 -0.25223,3.068743 -0.0178,6.284567 -0.71246,9.308456 -0.27148,1.182851 -0.76547,2.323811 -1.25624,3.462701 -0.38201,0.88655 -0.69812,1.77432 -1.30413,2.59818 -0.40472,0.55019 -1.05615,0.92723 -1.54365,1.42518 l -0.0804,-0.008 c 1.07872,-2.05405 2.30529,-4.01234 2.97598,-6.18468 0.78874,-2.554869 0.87048,-5.161037 1.13561,-7.771498 0.24564,-2.419681 0.85067,-4.813526 -0.12297,-7.229678 l -0.16098,-0.02032 c -1.90424,1.449419 -4.3071,2.763548 -6.49366,4.003312 -0.59439,0.336968 -1.18496,0.674062 -1.79797,0.994972 -0.27275,0.142734 -0.65599,0.289381 -0.72672,0.546013 -0.0849,0.307736 0.15616,0.705615 0.27407,1.005146 0.32075,0.815233 0.86792,1.550334 0.91507,2.396296 0.12068,2.165338 -0.55876,4.204825 -1.07904,6.298867 -0.33228,1.33698 -0.47716,2.68307 -0.67305,4.0355 -0.2284,1.57944 -0.40259,3.34245 -2.28194,4.37525 0.62406,-1.76451 1.50908,-3.40696 1.92463,-5.21805 0.22891,-0.99822 -0.005,-2.00368 0.26033,-3.00501 0.62168,-2.330894 1.68909,-4.598328 1.055,-7.036393 -0.22333,-0.858945 -0.71452,-1.63382 -1.22283,-2.431789 -0.87677,0.174657 -1.77388,0.793485 -2.44924,1.206125 -1.40571,0.858831 -2.76138,1.765109 -4.18393,2.609242 -0.61222,0.363314 -1.99984,0.895912 -2.18844,1.465323 -0.70933,2.140986 0.75221,4.359412 0.47192,6.525472 -0.36325,2.80719 -1.70728,5.40408 -3.04372,8.00935 0.50594,0.13537 1.06939,-0.0229 1.57301,-0.085 1.11867,-0.13638 2.24709,-0.26281 3.35373,-0.43421 2.30637,-0.35717 4.64693,-0.67076 6.85261,-1.25049 2.28499,-0.60057 4.35665,-1.45411 6.52032,-2.22034 1.1238,-0.39802 2.35005,-0.57733 3.51347,-0.90463 1.00278,-0.28211 1.93263,-0.71738 2.81428,-1.14315 2.87152,-1.3866 5.0784,-3.35171 7.78708,-4.87961 3.08726,-1.741416 6.65482,-3.430889 8.445,-6.011358 0.98514,-1.420036 1.20309,-3.021538 1.58758,-4.569521 0.48426,-1.949802 1.04421,-3.880434 1.37005,-5.854918 0.15996,-0.967977 0.60913,-1.939359 0.72028,-2.894659 0.0626,-0.53825 -0.0958,-1.126908 -0.10747,-1.673111 -0.0357,-1.687389 -0.10392,-3.336174 -1.09557,-4.936813 m -49.4873,27.90188 c 1.52275,-1.13568 2.75831,-2.492179 4.17343,-3.698534 2.51119,-2.140681 5.20339,-4.180434 8.12244,-6.048591 4.02151,-2.573709 8.93088,-4.327245 12.98683,-6.861334 4.33744,-2.70994 7.92243,-5.885418 12.70982,-8.265466 2.19531,-1.091365 4.7169,-1.792319 7.15476,-2.584356 1.2307,-0.399785 2.39339,-1.005732 3.66538,-1.328014 0.70955,-0.179739 1.48742,-0.208893 2.19751,-0.388631 3.20854,-0.811588 3.63477,-3.982619 7.49619,-4.155943 -0.17999,-1.149825 0.0316,-2.008465 -1.23439,-2.961732 -0.41686,-0.313847 -1.09119,-0.630337 -1.71761,-0.528164 -0.60491,0.09858 -0.80082,0.572422 -1.0882,0.904575 -0.45464,0.525624 -1.08786,1.005897 -1.65838,1.469262 -2.10036,1.705924 -4.7011,3.068185 -7.30952,4.364962 -3.91018,1.94392 -8.07254,3.592297 -11.76504,5.744818 -4.27312,2.490999 -7.86359,5.493648 -12.03418,8.059368 -2.23347,1.374 -4.90397,2.329528 -7.21513,3.63366 -1.39129,0.785075 -2.5004,1.793842 -3.68405,2.724243 -3.02106,2.374688 -6.14715,4.677755 -9.01409,7.148251 -0.5817,0.501221 -1.15358,1.004436 -1.70861,1.520706 -0.19647,0.18279 -0.57098,0.43242 -0.59717,0.67465 -0.0253,0.23652 0.29098,0.43041 0.52001,0.57627 z"
       id="path1070" /><path
       style="fill:#26a269;fill-opacity:1;stroke:none;stroke-width:0.309536"
       d="m 38.909695,124.76423 -0.737281,6.87912 -0.08835,9.45603 0.418649,5.14256 0.452283,2.51058 -0.169852,-0.0685 c 0.718594,2.21098 0.887391,4.61786 1.61163,6.85392 2.363943,7.29861 6.718614,14.05329 13.972601,17.25205 4.73195,2.08665 10.09321,2.74208 15.224046,2.3301 1.907131,-0.15338 3.810936,-0.38311 5.693416,-0.71982 0.64598,-0.1156 1.797144,-0.59788 2.429201,-0.40281 0.522375,0.16123 0.992192,0.93576 1.316977,1.34698 1.236021,1.56489 2.015266,3.25241 2.176214,5.24721 1.462647,-0.13057 2.856126,-0.60777 4.333128,-0.26743 l -2.499056,-2.67411 -1.543271,-1.60092 -0.0061,-0.0817 c 0.843805,-0.73264 1.513666,-2.46718 2.649536,-2.80364 0.429798,-0.12726 1.107988,0.31146 1.515115,0.44816 1.278394,0.42914 2.553309,0.85014 3.871648,1.14153 4.56594,1.00907 9.80128,1.14756 13.743691,-1.76054 2.93502,-2.16494 4.00993,-5.4945 5.45125,-8.67151 2.53057,-5.57801 4.99883,-12.18542 9.88831,-16.08037 -0.81025,-0.44867 -1.88367,-0.62346 -2.7795,-0.84386 -1.79577,-0.44184 -3.59438,-0.82345 -5.42748,-1.07593 -7.59373,-1.0459 -16.462974,-0.62194 -21.99255,5.43191 -1.068598,1.1699 -1.895551,2.56276 -2.587129,3.98092 -1.63617,3.35514 -2.134066,7.24872 -2.192997,10.94046 -0.01648,1.03484 -0.0099,2.08457 0.07313,3.11633 0.04665,0.57843 0.229248,1.31029 0.109515,1.88094 -0.247071,1.17819 -2.154882,2.84842 -3.439414,2.63385 -0.450699,-0.0753 -1.046557,-0.92518 -1.026436,-1.36972 0.07796,-1.72167 0.740549,-3.52881 0.964376,-5.25414 0.890979,-6.86813 0.871587,-14.57483 -2.744689,-20.73043 -1.579069,-2.68783 -3.829511,-4.98535 -6.581587,-6.47796 -2.611226,-1.41624 -5.529227,-2.18019 -8.309617,-3.1916 -4.241848,-1.543 -8.453959,-3.16268 -12.566079,-5.02945 -2.813494,-1.27727 -5.683901,-2.6941 -8.172019,-4.54124 -0.73941,-0.54892 -1.439169,-1.11026 -2.061932,-1.79276 -0.321553,-0.35239 -0.553103,-0.92715 -0.969425,-1.15426 m 0.183008,0.23171 0.0329,0.40817 -0.08168,0.005 0.04875,-0.41476 m 0.121151,0.48322 c 0.302276,3.62324 1.659893,7.44919 2.857823,10.86156 4.489101,12.78743 12.98771,24.16966 24.692336,31.20205 l 0.0061,0.0817 c -0.956246,-0.36144 -1.855307,-0.97969 -2.748366,-1.47633 -1.233754,-0.68604 -2.528522,-1.30859 -3.628626,-2.20277 -0.842085,-0.68446 -1.646551,-1.3939 -2.469937,-2.09805 -0.322866,-0.27612 -0.674913,-0.72688 -1.065691,-0.89773 -0.560035,-0.24489 -1.674482,0.005 -2.292367,0.0102 -1.122876,0.0127 -2.269487,-0.16426 -3.329672,-0.53426 -3.738727,-1.30477 -7.128329,-4.90401 -9.624849,-7.86201 -0.944723,-1.11938 -2.132545,-2.4261 -2.655699,-3.81179 l 0.08168,-0.005 c 2.702205,4.74899 7.417661,8.65616 12.447131,10.68332 1.618793,0.65247 3.516248,1.35905 5.28613,1.3608 -7.62608,-6.78117 -12.654956,-16.29705 -15.602536,-25.93746 -0.655518,-2.14392 -1.132316,-4.33388 -1.583338,-6.52755 -0.163489,-0.79534 -0.62853,-2.05891 -0.370546,-2.84587 m 10.956554,15.63099 -0.07511,0.0882 0.07511,-0.0882 m -0.06842,0.16985 0.01978,0.24489 -0.08168,0.005 0.06188,-0.25149 m -0.05531,0.33312 c 0.0038,2.44192 0.222887,4.70876 0.867813,7.07828 0.36738,1.34979 1.027872,2.64669 1.340666,4.00003 l -0.08168,0.005 c -0.948785,-2.98397 -2.425052,-5.70276 -2.305424,-8.93424 0.02574,-0.69382 -0.104955,-1.49616 0.178572,-2.15067 m 52.93656,4.35612 0.006,0.0815 c -4.311226,2.21726 -8.353004,6.72379 -9.083214,11.66071 6.661274,-6.22231 14.997704,-8.76919 23.883904,-9.48617 l 0.006,0.0817 c -8.34014,0.67292 -16.39603,3.59703 -22.762558,9.12738 -1.484887,1.28988 -2.917868,2.70987 -4.177269,4.22064 -0.704362,0.84495 -1.293515,1.87834 -2.089331,2.63342 0.766809,-1.63989 1.97824,-3.25462 3.161232,-4.60854 0.526195,-0.60225 1.462732,-1.18399 1.817801,-1.89709 0.210938,-0.42372 0.123095,-1.08581 0.172613,-1.55129 0.09578,-0.90165 0.297091,-1.77206 0.669323,-2.60111 0.58073,-1.29341 1.581787,-2.35637 2.580887,-3.33705 1.648785,-1.61833 3.595922,-3.52103 5.813432,-4.32417 m -50.662685,6.85386 -0.02282,0.0565 0.02282,-0.0565 m 11.38295,-0.80879 0.121151,0.48318 -0.08168,0.005 -0.03947,-0.48978 m -11.281549,1.04717 -0.02282,0.0565 0.02282,-0.0565 m 0.10136,0.2383 -0.02282,0.0565 0.02282,-0.0565 m 0.101486,0.2383 -0.02282,0.0565 0.02282,-0.0565 m 11.288143,-0.96554 c 0.795421,2.71918 3.597778,7.59092 0.373567,9.72166 -0.371377,0.2454 -0.76416,0.40809 -1.189503,0.53252 1.09846,-1.86308 2.10288,-3.61571 1.821448,-5.89845 -0.120161,-0.97482 -0.378825,-1.96683 -0.67058,-2.90381 -0.131521,-0.42214 -0.451876,-1.01763 -0.334932,-1.45192 m 30.543824,-2.30009 -0.825511,0.9704 0.825511,-0.9704 m -1.644428,2.02247 c -1.956717,3.77712 -4.299155,7.6324 -4.534119,12.03314 l -0.08168,0.005 c -0.18671,-3.11428 1.099327,-6.9815 2.729121,-9.58692 0.532053,-0.85054 1.110002,-1.80634 1.88663,-2.45281 m -22.10792,4.00219 c 4.624471,3.93438 6.008834,9.46832 4.183623,15.19149 l -0.08168,0.005 c 0.383478,-3.61403 0.0038,-7.36464 -1.413963,-10.73159 -0.440575,-1.04628 -1.018836,-2.06511 -1.68156,-2.98654 -0.297793,-0.41407 -0.948336,-0.97237 -1.006476,-1.47995 m 36.180482,-1.68673 0.006,0.0817 c -2.31062,-0.34173 -4.18672,-0.008 -6.46874,0.27543 1.81177,-1.0582 4.52795,-0.81826 6.46216,-0.35707 m -6.54379,0.36366 0.006,0.0817 -0.32655,0.0263 0.31995,-0.10798 m -0.401566,0.11459 0.0064,0.0817 -0.326525,0.0264 0.319945,-0.10798 m 7.115206,-0.40977 -0.0751,0.0883 0.0751,-0.0883 m -61.416777,5.61269 2.375341,1.94462 c -0.661235,-0.37792 -2.131924,-1.20592 -2.375341,-1.94462 m 3.672284,2.7438 c 3.510184,2.53601 8.180978,3.85139 12.373771,4.68248 1.746605,0.34621 3.685516,0.74435 5.472474,0.61507 l 0.0061,0.0817 c -4.751915,0.3839 -9.791028,-0.56098 -14.025983,-2.7644 -0.990822,-0.51555 -1.943219,-1.13926 -2.855222,-1.78228 -0.312,-0.22005 -0.843088,-0.46256 -0.970935,-0.83206 m 42.898122,-0.9141 c 1.682168,2.26182 3.982822,1.75265 6.368739,1.54022 l 0.0064,0.0817 c -1.529856,0.18963 -3.543835,1.15789 -5.055805,0.47483 -0.66245,-0.29925 -1.557524,-1.30353 -1.319528,-2.09674 m -4.005201,2.29508 0.01978,0.24489 -0.08168,0.005 0.06188,-0.25147 m 10.693873,-0.86283 0.0064,0.0817 -0.244906,0.0203 0.238301,-0.10137 m -3.154543,4.69139 c -0.38261,0.59194 -1.033882,1.03822 -1.609899,1.43215 -2.744011,1.87671 -5.639617,1.44344 -8.528327,0.20762 l -0.0061,-0.0817 c 2.692899,0.3983 5.072389,0.74337 7.703592,-0.24589 0.880185,-0.33091 1.615857,-0.8857 2.441215,-1.31215 z"
       id="path1071" /></g></svg>
